<svg width="137" height="110" viewBox="0 0 137 110" fill="none" xmlns="http://www.w3.org/2000/svg">
<path d="M63.2157 12.011C62.6321 10.5575 61.3675 9.54627 60.0789 8.83915C60.8965 8.81058 61.6211 8.72893 62.446 8.75002C65.7991 8.83577 69.121 10.0413 71.5925 12.3488C71.9868 12.7162 72.3642 13.1013 72.7235 13.5029C72.8278 13.6176 73.3506 14.2461 73.439 14.2846C74.157 14.5977 75.0165 14.7826 75.7626 15.0586C76.6216 15.3796 77.4591 15.7552 78.2704 16.1828C84.4341 19.4809 87.5628 25.6872 87.7506 32.5131C87.7996 34.2913 85.2943 34.7112 83.5625 34.3045C82.0175 33.9416 80.7826 33.0113 79.5445 32.064C79.2538 31.8416 78.8007 31.4833 78.481 31.3204L78.4663 31.2278C80.0445 32.1636 81.321 33.4899 83.2495 33.6495C84.5838 33.7599 85.7373 33.4344 86.4832 32.2563C85.731 31.6457 84.7895 31.4391 83.9913 30.8969C83.3732 30.4768 82.8376 30.0019 82.1979 29.5578C79.6757 27.8067 76.2795 27.3401 73.4878 28.7294C73.0184 28.9629 72.5842 29.4149 72.0597 29.5931C71.625 29.7709 71.2484 29.9641 70.7726 30.0756C68.9106 30.5121 66.8027 30.4161 65.1629 29.3795C66.1447 28.8273 67.003 28.1588 67.3553 27.0476C67.7342 25.8527 66.8965 24.9828 65.78 24.7434C60.0416 23.5132 54.6866 27.8145 52.7242 32.9657C51.1097 37.2039 51.5316 41.6486 53.8449 45.4955C54.4083 46.4299 55.1108 47.2727 55.9282 47.9952L55.9152 48.0433C55.7035 47.9486 55.1271 47.3942 54.9459 47.2183C53.1375 45.4802 51.7273 43.3705 50.8125 41.0349C48.9865 36.278 49.127 30.9904 51.2031 26.3372C52.5734 23.2543 54.7465 20.5959 57.4953 18.6398C58.4987 17.9196 59.4648 17.3371 60.594 16.8477C60.9321 16.7012 61.2805 16.5648 61.6183 16.4171C63.046 15.5817 63.828 13.5362 63.2157 12.011ZM79.6988 25.9124C83.8582 25.9339 79.1091 20.6619 75.4754 20.9822C72.6123 21.3272 73.9528 23.3562 75.4838 24.4277C76.6638 25.2536 78.2335 25.9131 79.6988 25.9124Z" fill="#9474FF"/>
<path d="M59.4823 31.1228L59.5078 31.1401C59.4963 31.1713 58.6617 31.9264 58.5291 32.0777C55.6074 35.4115 55.4171 40.5421 57.7764 44.2237C59.3035 46.6312 61.7399 48.3187 64.5308 48.9015C66.8866 49.4125 69.3527 49.1484 71.52 48.0625C72.0389 47.8021 72.3559 47.5403 72.8326 47.2334C72.3281 47.9118 70.8037 49.1537 70.0708 49.6271C67.3995 51.2743 64.619 51.8675 61.5116 51.2693C59.041 50.7734 56.5014 49.3946 55.1185 47.2568C52.5891 43.3468 53.1269 38.29 55.7918 34.6003C56.7912 33.2166 58.04 32.0754 59.4823 31.1228Z" fill="#9474FF"/>
<path d="M29.4958 96.36C27.2824 96.36 25.2958 95.9333 23.5358 95.08C21.8024 94.2 20.4424 93 19.4558 91.48C18.4691 89.9333 17.9758 88.2267 17.9758 86.36V77.56C17.9758 75.6933 18.4691 74.0133 19.4558 72.52C20.4424 71 21.8024 69.8133 23.5358 68.96C25.2958 68.08 27.2824 67.64 29.4958 67.64C31.7358 67.64 33.7224 68.08 35.4558 68.96C37.2158 69.8133 38.5891 71 39.5758 72.52C40.5624 74.0133 41.0558 75.6933 41.0558 77.56V86.36C41.0558 88.2267 40.5624 89.9333 39.5758 91.48C38.5891 93 37.2158 94.2 35.4558 95.08C33.6958 95.9333 31.7091 96.36 29.4958 96.36ZM29.4958 93.08C31.9758 93.08 33.9091 92.4667 35.2958 91.24C36.6824 90.0133 37.3758 88.3733 37.3758 86.32V77.64C37.3758 75.5867 36.6824 73.96 35.2958 72.76C33.9091 71.5333 31.9758 70.92 29.4958 70.92C27.0424 70.92 25.1224 71.5333 23.7358 72.76C22.3491 73.96 21.6558 75.5867 21.6558 77.64V86.32C21.6558 88.3733 22.3491 90.0133 23.7358 91.24C25.1224 92.4667 27.0424 93.08 29.4958 93.08ZM45.6555 69.76C45.6555 69.2533 45.8288 68.84 46.1755 68.52C46.5488 68.1733 47.0155 68 47.5755 68H58.6155C61.2021 68 63.2555 68.76 64.7755 70.28C66.3221 71.7733 67.0955 73.7733 67.0955 76.28C67.0955 79.4267 65.7221 81.6533 62.9755 82.96V83.08C64.1755 83.5867 65.0955 84.36 65.7355 85.4C66.3755 86.4133 66.6955 87.6533 66.6955 89.12V93.24C66.6955 94.2533 66.3755 95.0267 65.7355 95.56C65.0955 96.0933 64.1621 96.36 62.9355 96.36V89.36C62.9355 87.7867 62.5755 86.6 61.8555 85.8C61.1621 84.9733 60.1221 84.56 58.7355 84.56H49.3755V93.24C49.3755 94.2533 49.0555 95.0267 48.4155 95.56C47.8021 96.0933 46.8821 96.36 45.6555 96.36V69.76ZM58.4955 81.32C59.9621 81.32 61.1221 80.8667 61.9755 79.96C62.8555 79.0533 63.2955 77.8133 63.2955 76.24C63.2955 74.64 62.8821 73.4133 62.0555 72.56C61.2288 71.7067 60.0421 71.28 58.4955 71.28H49.3755V81.32H58.4955ZM72.2961 70.76C72.2961 69.7733 72.6294 69.0133 73.2961 68.48C73.9628 67.92 74.8828 67.64 76.0561 67.64V81.36L90.6561 67.64C91.1094 68.0133 91.4828 68.4133 91.7761 68.84C92.0694 69.24 92.2161 69.6 92.2161 69.92C92.2161 70.5867 91.8161 71.2933 91.0161 72.04L81.6561 80.84L93.7361 95.32C93.4428 95.64 93.0961 95.8933 92.6961 96.08C92.3228 96.2667 91.9494 96.36 91.5761 96.36C90.5361 96.36 89.6961 95.9867 89.0561 95.24L78.9361 83.24L76.0561 85.92V93.36C76.0561 94.3733 75.7494 95.1333 75.1361 95.64C74.5228 96.12 73.5761 96.36 72.2961 96.36V70.76ZM98.1139 96.36C97.3139 96.2 96.6872 95.8667 96.2339 95.36C95.7806 94.8267 95.5539 94.1867 95.5539 93.44C95.5539 92.9333 95.6739 92.4 95.9139 91.84L105.474 68.84C105.794 68.04 106.407 67.64 107.314 67.64C108.167 67.64 108.767 68.04 109.114 68.84L118.674 91.84C118.914 92.4 119.034 92.9333 119.034 93.44C119.034 94.16 118.807 94.7867 118.354 95.32C117.901 95.8533 117.274 96.2 116.474 96.36L113.034 88H101.554L98.1139 96.36ZM111.874 84.76L106.714 71.68L106.394 71.8L107.114 73.64L102.714 84.76H111.874Z" fill="#FFFAF2"/>
</svg>
