<svg width="41" height="38" viewBox="0 0 41 38" fill="none" xmlns="http://www.w3.org/2000/svg">
<path d="M15.3134 1.5H13.7804L13.8134 3.033L13.9194 7.987L9.73445 5.34L8.39945 4.496L7.62545 5.873L2.82145 14.416L2.06745 15.756L3.42745 16.476L7.79745 18.79L3.40045 21.232L2.06445 21.974L2.83145 23.296L7.63545 31.577L8.40445 32.903L9.71345 32.106L13.9814 29.504L13.8134 34.56L13.7624 36.11H26.4704L26.4194 34.56L26.2534 29.62L30.5074 32.267L31.8324 33.091L32.6044 31.734L37.4074 23.285L38.1604 21.961L36.8254 21.229L32.3804 18.79L36.7994 16.48L38.1814 15.757L37.4044 14.404L32.6014 6.039L31.8374 4.709L30.5244 5.502L26.3054 8.052L26.4194 3.035L26.4544 1.5H15.3134Z" fill="#C8DDF1" stroke="#051A2F" stroke-width="3"/>
</svg>
