<svg width="41" height="39" viewBox="0 0 41 39" fill="none" xmlns="http://www.w3.org/2000/svg">
<path d="M15.5297 1.5H13.9987L14.0317 3.032L14.1417 8.138L9.82768 5.41L8.49168 4.567L7.71868 5.943L2.82168 14.653L2.06768 15.993L3.42768 16.713L7.93168 19.097L3.40168 21.613L2.06468 22.355L2.83168 23.677L7.72868 32.12L8.49868 33.446L9.80668 32.648L14.2047 29.968L14.0317 35.177L13.9807 36.727H26.8767L26.8247 35.177L26.6547 30.085L31.0387 32.812L32.3637 33.637L33.1337 32.28L38.0317 23.666L38.7847 22.342L37.4497 21.61L32.8697 19.097L37.4227 16.717L38.8057 15.994L38.0287 14.64L33.1317 6.112L32.3677 4.782L31.0547 5.575L26.7077 8.203L26.8257 3.034L26.8607 1.5H15.5297Z" fill="#FF8F27" stroke="#051A2F" stroke-width="3"/>
</svg>
