<svg width="63" height="36" viewBox="0 0 63 36" fill="none" xmlns="http://www.w3.org/2000/svg">
<path d="M61.4068 15.4742V15.4702C61.7438 14.0612 61.1448 12.6202 59.9468 11.8302C59.3661 11.4493 58.6881 11.2437 57.9936 11.2378C57.2992 11.232 56.6178 11.4262 56.0308 11.7972L56.0278 11.7992L46.5138 17.8642L34.2718 2.80915C33.9227 2.38051 33.4775 2.03925 32.9733 1.81252C32.4692 1.58579 31.9191 1.47986 31.3668 1.50315C30.8165 1.5219 30.278 1.66791 29.7936 1.92973C29.3091 2.19154 28.892 2.56204 28.5748 3.01215L18.1828 17.9192L6.76579 11.6792L6.04579 12.9952L6.76479 11.6782C6.17218 11.3554 5.50106 11.2049 4.82737 11.2438C4.15369 11.2827 3.50433 11.5093 2.95279 11.8982H2.95179C2.39326 12.2894 1.96504 12.8393 1.72257 13.4767C1.4801 14.1141 1.43454 14.8096 1.59179 15.4732V15.4752L5.71479 32.5582L5.99179 33.7072H57.0068L57.2848 32.5592L61.4068 15.4752V15.4742Z" fill="#FF8F27" stroke="#051A2F" stroke-width="3"/>
</svg>
