<svg width="38" height="39" viewBox="0 0 38 39" fill="none" xmlns="http://www.w3.org/2000/svg">
<path d="M29.891 12.488H25.573V8.125C25.5739 6.37212 24.882 4.68993 23.648 3.445C23.0381 2.82925 22.3123 2.34036 21.5125 2.00654C20.7127 1.67271 19.8547 1.50056 18.988 1.5C17.238 1.5 15.561 2.201 14.328 3.445C13.0943 4.69011 12.4024 6.37219 12.403 8.125V12.488H8.085C6.335 12.488 4.659 13.189 3.425 14.433C2.19129 15.6781 1.49941 17.3602 1.5 19.113C1.5 20.867 2.191 22.551 3.425 23.794C4.03491 24.4097 4.76071 24.8986 5.56052 25.2325C6.36033 25.5663 7.21832 25.7384 8.085 25.739H12.403V30.102C12.403 31.855 13.093 33.539 14.327 34.782C14.9369 35.3977 15.6627 35.8866 16.4625 36.2205C17.2623 36.5543 18.1203 36.7264 18.987 36.727C19.8539 36.7266 20.7121 36.5546 21.5121 36.2207C22.3121 35.8869 23.038 35.3979 23.648 34.782C24.8818 33.5369 25.5737 31.8548 25.573 30.102V25.739H29.89C31.64 25.739 33.317 25.038 34.55 23.794C35.7837 22.5489 36.4756 20.8668 36.475 19.114C36.475 17.36 35.785 15.676 34.551 14.433C33.9411 13.8173 33.2153 13.3284 32.4155 12.9945C31.6157 12.6607 30.7577 12.4886 29.891 12.488Z" fill="#1CB785"/>
<path d="M3.425 14.433C4.659 13.189 6.335 12.488 8.085 12.488H12.403V8.125C12.4024 6.37219 13.0943 4.69011 14.328 3.445C15.561 2.201 17.238 1.5 18.988 1.5C19.8547 1.50056 20.7127 1.67271 21.5125 2.00654C22.3123 2.34036 23.0381 2.82925 23.648 3.445C24.882 4.68993 25.5739 6.37212 25.573 8.125V12.488H29.891C30.7577 12.4886 31.6157 12.6607 32.4155 12.9945C33.2153 13.3284 33.9411 13.8173 34.551 14.433C35.785 15.676 36.475 17.36 36.475 19.114C36.4756 20.8668 35.7837 22.5489 34.55 23.794C33.317 25.038 31.64 25.739 29.89 25.739H25.573V30.102C25.5737 31.8548 24.8818 33.5369 23.648 34.782C23.038 35.3979 22.3121 35.8869 21.5121 36.2207C20.7121 36.5546 19.8539 36.7266 18.987 36.727C18.1203 36.7264 17.2623 36.5543 16.4625 36.2205C15.6627 35.8866 14.9369 35.3977 14.327 34.782C13.093 33.539 12.403 31.855 12.403 30.102V25.739H8.085C7.21832 25.7384 6.36033 25.5663 5.56052 25.2325C4.76071 24.8986 4.03491 24.4097 3.425 23.794C2.191 22.551 1.5 20.867 1.5 19.113C1.49941 17.3602 2.19129 15.6781 3.425 14.433ZM3.425 14.433L4.49 15.489" stroke="#051A2F" stroke-width="3"/>
</svg>
