<svg width="38" height="39" viewBox="0 0 38 39" fill="none" xmlns="http://www.w3.org/2000/svg">
<path d="M29.889 12.488H25.573V8.125C25.5739 6.37233 24.8823 4.69028 23.649 3.445C23.0391 2.82925 22.3133 2.34036 21.5135 2.00654C20.7137 1.67271 19.8557 1.50056 18.989 1.5C17.238 1.5 15.562 2.2 14.328 3.444C13.0942 4.68905 12.4023 6.37117 12.403 8.124V12.488H8.085C6.335 12.488 4.658 13.188 3.425 14.432C2.19166 15.6773 1.49915 17.3593 1.5 19.112C1.5 20.866 2.19 22.55 3.424 23.793C4.03391 24.4087 4.75971 24.8976 5.55952 25.2315C6.35933 25.5653 7.21732 25.7374 8.084 25.738H12.402V30.101C12.402 31.854 13.092 33.538 14.327 34.781C14.9369 35.3966 15.6626 35.8854 16.4625 36.2189C17.2623 36.5525 18.1202 36.7243 18.9868 36.7244C19.8534 36.7244 20.7114 36.5528 21.5112 36.2195C22.3111 35.8861 23.037 35.3975 23.647 34.782C24.881 33.5366 25.5729 31.8542 25.572 30.101V25.738H29.889C31.639 25.738 33.316 25.038 34.55 23.793C35.7837 22.5479 36.4756 20.8658 36.475 19.113C36.4756 17.3602 35.7837 15.6781 34.55 14.433C33.9401 13.8173 33.2143 13.3284 32.4145 12.9945C31.6147 12.6607 30.7567 12.4886 29.89 12.488H29.889Z" fill="#E9FA49"/>
<path d="M3.425 14.432C4.658 13.188 6.335 12.488 8.085 12.488H12.403V8.124C12.4023 6.37117 13.0942 4.68905 14.328 3.444C15.562 2.2 17.238 1.5 18.989 1.5C19.8557 1.50056 20.7137 1.67271 21.5135 2.00654C22.3133 2.34036 23.0391 2.82925 23.649 3.445C24.8823 4.69028 25.5739 6.37233 25.573 8.125V12.488H29.889H29.89C30.7567 12.4886 31.6147 12.6607 32.4145 12.9945C33.2143 13.3284 33.9401 13.8173 34.55 14.433C35.7837 15.6781 36.4756 17.3602 36.475 19.113C36.4756 20.8658 35.7837 22.5479 34.55 23.793C33.316 25.038 31.639 25.738 29.889 25.738H25.572V30.101C25.5729 31.8542 24.881 33.5366 23.647 34.782C23.037 35.3975 22.3111 35.8861 21.5112 36.2195C20.7114 36.5528 19.8534 36.7245 18.9868 36.7244C18.1202 36.7243 17.2623 36.5525 16.4625 36.2189C15.6626 35.8854 14.9369 35.3966 14.327 34.781C13.092 33.538 12.402 31.854 12.402 30.101V25.738H8.084C7.21732 25.7374 6.35933 25.5653 5.55952 25.2315C4.75971 24.8976 4.03391 24.4087 3.424 23.793C2.19 22.55 1.5 20.866 1.5 19.112C1.49915 17.3593 2.19166 15.6773 3.425 14.432ZM3.425 14.432L4.489 15.489" stroke="#051A2F" stroke-width="3"/>
</svg>
