<svg width="38" height="39" viewBox="0 0 38 39" fill="none" xmlns="http://www.w3.org/2000/svg">
<path d="M29.891 12.4864H25.573V8.12336C25.573 6.36936 24.883 4.68536 23.648 3.44336C23.0381 2.82771 22.3124 2.33899 21.5126 2.00544C20.7127 1.67188 19.8548 1.50009 18.9882 1.5C18.1216 1.49991 17.2636 1.67151 16.4638 2.00489C15.6639 2.33828 14.938 2.82684 14.328 3.44236C13.0942 4.68741 12.4023 6.36952 12.403 8.12236V12.4864H8.086C6.336 12.4864 4.659 13.1864 3.425 14.4304C2.1912 15.6754 1.4993 17.3575 1.5 19.1104C1.5 20.8644 2.191 22.5484 3.425 23.7914C4.03491 24.4071 4.76071 24.896 5.56052 25.2298C6.36033 25.5636 7.21832 25.7358 8.085 25.7364H12.403V30.0994C12.403 31.8524 13.093 33.5364 14.328 34.7794C14.9379 35.3949 15.6638 35.8836 16.4636 36.2171C17.2634 36.5505 18.1214 36.7222 18.988 36.7222C19.8546 36.7222 20.7126 36.5505 21.5124 36.2171C22.3122 35.8836 23.0381 35.3949 23.648 34.7794C24.8818 33.5343 25.5737 31.8522 25.573 30.0994V25.7364H29.89C31.64 25.7364 33.317 25.0354 34.55 23.7914C35.7837 22.5462 36.4756 20.8642 36.475 19.1114C36.4759 17.3587 35.7843 15.6766 34.551 14.4314C33.9411 13.8156 33.2153 13.3267 32.4155 12.9929C31.6157 12.6591 30.7577 12.4869 29.891 12.4864Z" fill="#C8DDF1"/>
<path d="M3.425 14.4304C4.659 13.1864 6.336 12.4864 8.086 12.4864H12.403V8.12236C12.4023 6.36952 13.0942 4.68741 14.328 3.44236C14.938 2.82684 15.6639 2.33828 16.4638 2.00489C17.2636 1.67151 18.1216 1.49991 18.9882 1.5C19.8548 1.50009 20.7127 1.67188 21.5126 2.00544C22.3124 2.33899 23.0381 2.82771 23.648 3.44336C24.883 4.68536 25.573 6.36936 25.573 8.12336V12.4864H29.891C30.7577 12.4869 31.6157 12.6591 32.4155 12.9929C33.2153 13.3267 33.9411 13.8156 34.551 14.4314C35.7843 15.6766 36.4759 17.3587 36.475 19.1114C36.4756 20.8642 35.7837 22.5462 34.55 23.7914C33.317 25.0354 31.64 25.7364 29.89 25.7364H25.573V30.0994C25.5737 31.8522 24.8818 33.5343 23.648 34.7794C23.0381 35.3949 22.3122 35.8836 21.5124 36.2171C20.7126 36.5505 19.8546 36.7222 18.988 36.7222C18.1214 36.7222 17.2634 36.5505 16.4636 36.2171C15.6638 35.8836 14.9379 35.3949 14.328 34.7794C13.093 33.5364 12.403 31.8524 12.403 30.0994V25.7364H8.085C7.21832 25.7358 6.36033 25.5636 5.56052 25.2298C4.76071 24.896 4.03491 24.4071 3.425 23.7914C2.191 22.5484 1.5 20.8644 1.5 19.1104C1.4993 17.3575 2.1912 15.6754 3.425 14.4304ZM3.425 14.4304L4.49 15.4874" stroke="#051A2F" stroke-width="3"/>
</svg>
