<svg width="38" height="37" viewBox="0 0 38 37" fill="none" xmlns="http://www.w3.org/2000/svg">
<path d="M26.2149 9.98704L26.2089 9.98503C26.1687 9.97845 26.1308 9.96228 26.0982 9.93791C26.0657 9.91354 26.0395 9.88168 26.0219 9.84504L26.0199 9.84204L22.8519 3.84203V3.84003C22.4856 3.1323 21.9312 2.53935 21.2496 2.12648C20.568 1.71361 19.7857 1.49684 18.9889 1.50003C17.3399 1.50003 15.8889 2.39503 15.1239 3.83603L15.1219 3.84003L11.9579 9.84304L11.9559 9.84604C11.938 9.88279 11.9114 9.91466 11.8785 9.93887C11.8456 9.96309 11.8073 9.97893 11.7669 9.98503L11.7579 9.98704L5.11885 11.167C4.33346 11.3029 3.59967 11.6526 2.99991 12.1775C2.40014 12.7025 1.95656 13.3826 1.71785 14.143C1.4696 14.8999 1.43274 15.7102 1.61126 16.4865C1.78979 17.2628 2.17691 17.9756 2.73085 18.548L7.41786 23.437L7.42086 23.44C7.47886 23.5 7.51086 23.584 7.49686 23.687L6.55385 30.418V30.422C6.44143 31.2082 6.54456 32.0101 6.85224 32.7422C7.15991 33.4744 7.6606 34.1092 8.30086 34.579L8.30685 34.583L8.31385 34.588C9.07285 35.138 9.96585 35.431 10.8749 35.431C11.5389 35.431 12.1979 35.278 12.8049 34.98L12.8079 34.979L18.8629 31.997L18.8639 31.996C18.9007 31.9769 18.9416 31.9667 18.9831 31.9663C19.0247 31.966 19.0657 31.9755 19.1029 31.994L25.1629 34.979L25.1689 34.982C25.8816 35.3357 26.6782 35.4857 27.4707 35.4157C28.2633 35.3456 29.0212 35.0582 29.6609 34.585L29.6659 34.581C30.3088 34.1127 30.8121 33.4782 31.1217 32.7454C31.4312 32.0127 31.5353 31.2095 31.4229 30.422V30.418L30.4809 23.688C30.4733 23.6438 30.4763 23.5984 30.4895 23.5555C30.5027 23.5126 30.5258 23.4734 30.5569 23.441L30.5599 23.438L35.2459 18.549C35.7998 17.9766 36.1869 17.2638 36.3654 16.4875C36.544 15.7112 36.5071 14.9009 36.2589 14.144L36.2569 14.137C35.7489 12.587 34.4769 11.454 32.8529 11.168L26.2139 9.98804L26.2149 9.98704Z" fill="#C8DDF1" stroke="#051A2F" stroke-width="3"/>
</svg>
