<svg width="50" height="50" viewBox="0 0 50 50" fill="none" xmlns="http://www.w3.org/2000/svg">
<path d="M19.7157 8.01099C19.1321 6.55746 17.8675 5.54627 16.5789 4.83915C17.3965 4.81058 18.1211 4.72893 18.946 4.75002C22.2991 4.83577 25.621 6.0413 28.0925 8.34883C28.4868 8.71618 28.8642 9.10127 29.2235 9.50287C29.3278 9.61762 29.8506 10.2461 29.939 10.2846C30.657 10.5977 31.5165 10.7826 32.2626 11.0586C33.1216 11.3796 33.9591 11.7552 34.7704 12.1828C40.9341 15.4809 44.0628 21.6872 44.2506 28.5131C44.2996 30.2913 41.7943 30.7112 40.0625 30.3045C38.5175 29.9416 37.2826 29.0113 36.0445 28.064C35.7538 27.8416 35.3007 27.4833 34.981 27.3204L34.9663 27.2278C36.5445 28.1636 37.821 29.4899 39.7495 29.6495C41.0838 29.7599 42.2373 29.4344 42.9832 28.2563C42.231 27.6457 41.2895 27.4391 40.4913 26.8969C39.8732 26.4768 39.3376 26.0019 38.6979 25.5578C36.1757 23.8067 32.7795 23.3401 29.9878 24.7294C29.5184 24.9629 29.0842 25.4149 28.5597 25.5931C28.125 25.7709 27.7484 25.9641 27.2726 26.0756C25.4106 26.5121 23.3027 26.4161 21.6629 25.3795C22.6447 24.8273 23.503 24.1588 23.8553 23.0476C24.2342 21.8527 23.3965 20.9828 22.28 20.7434C16.5416 19.5132 11.1866 23.8145 9.22424 28.9657C7.60967 33.2039 8.03158 37.6486 10.3449 41.4955C10.9083 42.4299 11.6108 43.2727 12.4282 43.9952L12.4152 44.0433C12.2035 43.9486 11.6271 43.3942 11.4459 43.2183C9.63745 41.4802 8.22727 39.3705 7.31252 37.0349C5.48652 32.278 5.62702 26.9904 7.70308 22.3372C9.07342 19.2543 11.2465 16.5959 13.9953 14.6398C14.9987 13.9196 15.9648 13.3371 17.094 12.8477C17.4321 12.7012 17.7805 12.5648 18.1183 12.4171C19.546 11.5817 20.328 9.53624 19.7157 8.01099ZM36.1988 21.9124C40.3582 21.9339 35.6091 16.6619 31.9754 16.9822C29.1123 17.3272 30.4528 19.3562 31.9838 20.4277C33.1638 21.2536 34.7335 21.9131 36.1988 21.9124Z" fill="#9474FF"/>
<path d="M19.7157 8.01099C19.1321 6.55746 17.8675 5.54627 16.5789 4.83915C17.3965 4.81058 18.1211 4.72893 18.946 4.75002C22.2991 4.83577 25.621 6.0413 28.0925 8.34883C28.4868 8.71618 28.8642 9.10127 29.2235 9.50287C29.3278 9.61762 29.8506 10.2461 29.939 10.2846C30.657 10.5977 31.5165 10.7826 32.2626 11.0586C33.1216 11.3796 33.9591 11.7552 34.7704 12.1828C40.9341 15.4809 44.0628 21.6872 44.2506 28.5131C44.2996 30.2913 41.7943 30.7112 40.0625 30.3045C38.5175 29.9416 37.2826 29.0113 36.0445 28.064C35.7538 27.8416 35.3007 27.4833 34.981 27.3204L34.9663 27.2278C36.5445 28.1636 37.821 29.4899 39.7495 29.6495C41.0838 29.7599 42.2373 29.4344 42.9832 28.2563C42.231 27.6457 41.2895 27.4391 40.4913 26.8969C39.8732 26.4768 39.3376 26.0019 38.6979 25.5578C36.1757 23.8067 32.7795 23.3401 29.9878 24.7294C29.5184 24.9629 29.0842 25.4149 28.5597 25.5931C28.125 25.7709 27.7484 25.9641 27.2726 26.0756C25.4106 26.5121 23.3027 26.4161 21.6629 25.3795C22.6447 24.8273 23.503 24.1588 23.8553 23.0476C24.2342 21.8527 23.3965 20.9828 22.28 20.7434C16.5416 19.5132 11.1866 23.8145 9.22424 28.9657C7.60967 33.2039 8.03158 37.6486 10.3449 41.4955C10.9083 42.4299 11.6108 43.2727 12.4282 43.9952L12.4152 44.0433C12.2035 43.9486 11.6271 43.3942 11.4459 43.2183C9.63745 41.4802 8.22727 39.3705 7.31252 37.0349C5.48652 32.278 5.62702 26.9904 7.70308 22.3372C9.07342 19.2543 11.2465 16.5959 13.9953 14.6398C14.9987 13.9196 15.9648 13.3371 17.094 12.8477C17.4321 12.7012 17.7805 12.5648 18.1183 12.4171C19.546 11.5817 20.328 9.53624 19.7157 8.01099ZM36.1988 21.9124C40.3582 21.9339 35.6091 16.6619 31.9754 16.9822C29.1123 17.3272 30.4528 19.3562 31.9838 20.4277C33.1638 21.2536 34.7335 21.9131 36.1988 21.9124Z" fill="#9474FF"/>
<path d="M15.9823 27.1228L16.0078 27.1401C15.9963 27.1713 15.1617 27.9264 15.0291 28.0777C12.1074 31.4115 11.9171 36.5421 14.2764 40.2237C15.8035 42.6312 18.2399 44.3187 21.0308 44.9015C23.3866 45.4125 25.8527 45.1484 28.02 44.0625C28.5389 43.8021 28.8559 43.5403 29.3326 43.2334C28.8281 43.9118 27.3037 45.1537 26.5708 45.6271C23.8995 47.2743 21.119 47.8675 18.0116 47.2693C15.541 46.7734 13.0014 45.3946 11.6185 43.2568C9.08914 39.3468 9.62692 34.29 12.2918 30.6003C13.2912 29.2166 14.54 28.0754 15.9823 27.1228Z" fill="#9474FF"/>
</svg>
